<svg width="90" height="24" viewBox="0 0 90 24" fill="none" xmlns="http://www.w3.org/2000/svg">
<path d="M9 2C6.38 2 4.25 4.13 4.25 6.75C4.25 9.32 6.26 11.4 8.88 11.49C8.96 11.48 9.04 11.48 9.1 11.49C9.12 11.49 9.13 11.49 9.15 11.49C9.16 11.49 9.16 11.49 9.17 11.49C11.73 11.4 13.74 9.32 13.75 6.75C13.75 4.13 11.62 2 9 2Z" fill="#90A3BF"/>
<path d="M14.08 14.15C11.29 12.29 6.73996 12.29 3.92996 14.15C2.65996 15 1.95996 16.15 1.95996 17.38C1.95996 18.61 2.65996 19.75 3.91996 20.59C5.31996 21.53 7.15996 22 8.99996 22C10.84 22 12.68 21.53 14.08 20.59C15.34 19.74 16.04 18.6 16.04 17.36C16.03 16.13 15.34 14.99 14.08 14.15Z" fill="#90A3BF"/>
<path d="M19.9901 7.34001C20.1501 9.28001 18.7701 10.98 16.8601 11.21C16.8501 11.21 16.8501 11.21 16.8401 11.21H16.8101C16.7501 11.21 16.6901 11.21 16.6401 11.23C15.6701 11.28 14.7801 10.97 14.1101 10.4C15.1401 9.48001 15.7301 8.10001 15.6101 6.60001C15.5401 5.79001 15.2601 5.05001 14.8401 4.42001C15.2201 4.23001 15.6601 4.11001 16.1101 4.07001C18.0701 3.90001 19.8201 5.36001 19.9901 7.34001Z" fill="#90A3BF"/>
<path d="M21.99 16.59C21.91 17.56 21.29 18.4 20.25 18.97C19.25 19.52 17.99 19.78 16.74 19.75C17.46 19.1 17.88 18.29 17.96 17.43C18.06 16.19 17.47 15 16.29 14.05C15.62 13.52 14.84 13.1 13.99 12.79C16.2 12.15 18.98 12.58 20.69 13.96C21.61 14.7 22.08 15.63 21.99 16.59Z" fill="#90A3BF"/>
<path d="M35.726 18V15.592H30.602V14.458L35.698 7.57H37.014V14.458H38.372V15.592H37.014V18H35.726ZM31.638 14.948L31.442 14.458H35.726V8.718L36.132 8.83L31.638 14.948ZM41.9497 18V7.57H45.6317C46.3223 7.57 46.929 7.70067 47.4517 7.962C47.9743 8.22333 48.3803 8.59667 48.6697 9.082C48.9683 9.56733 49.1177 10.1367 49.1177 10.79C49.1177 11.4433 48.9683 12.0127 48.6697 12.498C48.3803 12.974 47.9743 13.3473 47.4517 13.618C46.9383 13.8793 46.3317 14.01 45.6317 14.01H43.3217V18H41.9497ZM43.3217 12.75H45.6737C46.0937 12.75 46.4577 12.6707 46.7657 12.512C47.0737 12.3533 47.3117 12.1247 47.4797 11.826C47.6477 11.5273 47.7317 11.182 47.7317 10.79C47.7317 10.3887 47.6477 10.0433 47.4797 9.754C47.3117 9.45533 47.0737 9.22667 46.7657 9.068C46.4577 8.90933 46.0937 8.83 45.6737 8.83H43.3217V12.75ZM53.7377 18.168C53.0097 18.168 52.361 17.9953 51.7917 17.65C51.2223 17.3047 50.7743 16.8333 50.4477 16.236C50.121 15.6293 49.9577 14.9527 49.9577 14.206C49.9577 13.45 50.1163 12.778 50.4337 12.19C50.7603 11.602 51.199 11.14 51.7497 10.804C52.3097 10.4587 52.935 10.286 53.6257 10.286C54.1857 10.286 54.6803 10.3887 55.1097 10.594C55.5483 10.79 55.917 11.0607 56.2157 11.406C56.5237 11.742 56.757 12.1293 56.9157 12.568C57.0837 12.9973 57.1677 13.4453 57.1677 13.912C57.1677 14.0147 57.1583 14.1313 57.1397 14.262C57.1303 14.3833 57.1163 14.5 57.0977 14.612H50.9097V13.492H56.3417L55.7257 13.996C55.8097 13.5107 55.763 13.0767 55.5857 12.694C55.4083 12.3113 55.147 12.008 54.8017 11.784C54.4563 11.56 54.0643 11.448 53.6257 11.448C53.187 11.448 52.7857 11.56 52.4217 11.784C52.0577 12.008 51.773 12.33 51.5677 12.75C51.3717 13.1607 51.2923 13.6507 51.3297 14.22C51.2923 14.7707 51.3763 15.256 51.5817 15.676C51.7963 16.0867 52.095 16.4087 52.4777 16.642C52.8697 16.866 53.2943 16.978 53.7517 16.978C54.2557 16.978 54.6803 16.8613 55.0257 16.628C55.371 16.3947 55.651 16.096 55.8657 15.732L56.9577 16.292C56.8083 16.6373 56.575 16.9547 56.2577 17.244C55.9497 17.524 55.581 17.748 55.1517 17.916C54.7317 18.084 54.2603 18.168 53.7377 18.168ZM62.1693 18.168C61.4413 18.168 60.7833 18 60.1953 17.664C59.6073 17.3187 59.1406 16.8473 58.7953 16.25C58.4499 15.6527 58.2773 14.976 58.2773 14.22C58.2773 13.464 58.4453 12.792 58.7813 12.204C59.1266 11.616 59.5933 11.1493 60.1813 10.804C60.7693 10.4587 61.4319 10.286 62.1693 10.286C62.8973 10.286 63.5553 10.4587 64.1433 10.804C64.7313 11.14 65.1933 11.602 65.5293 12.19C65.8746 12.778 66.0473 13.4547 66.0473 14.22C66.0473 14.9853 65.8699 15.6667 65.5153 16.264C65.1606 16.852 64.6893 17.3187 64.1013 17.664C63.5226 18 62.8786 18.168 62.1693 18.168ZM62.1693 16.908C62.6359 16.908 63.0559 16.7913 63.4293 16.558C63.8119 16.3247 64.1106 16.0027 64.3253 15.592C64.5493 15.1813 64.6613 14.724 64.6613 14.22C64.6613 13.7067 64.5493 13.254 64.3253 12.862C64.1106 12.4607 63.8119 12.1433 63.4293 11.91C63.0559 11.6673 62.6359 11.546 62.1693 11.546C61.6933 11.546 61.2639 11.6673 60.8813 11.91C60.5079 12.1433 60.2093 12.4607 59.9853 12.862C59.7613 13.254 59.6493 13.7067 59.6493 14.22C59.6493 14.724 59.7613 15.1813 59.9853 15.592C60.2093 16.0027 60.5079 16.3247 60.8813 16.558C61.2639 16.7913 61.6933 16.908 62.1693 16.908ZM67.4654 20.8V10.454H68.7394V12.078L68.5714 11.756C68.8514 11.308 69.2341 10.9533 69.7194 10.692C70.2048 10.4213 70.7601 10.286 71.3854 10.286C72.0948 10.286 72.7294 10.4587 73.2894 10.804C73.8588 11.1493 74.3068 11.6207 74.6334 12.218C74.9601 12.806 75.1234 13.478 75.1234 14.234C75.1234 14.9713 74.9601 15.6387 74.6334 16.236C74.3068 16.8333 73.8588 17.3047 73.2894 17.65C72.7294 17.9953 72.0901 18.168 71.3714 18.168C70.7648 18.168 70.2094 18.0327 69.7054 17.762C69.2108 17.4913 68.8281 17.1087 68.5574 16.614L68.7674 16.39V20.8H67.4654ZM71.2734 16.908C71.7494 16.908 72.1741 16.7913 72.5474 16.558C72.9208 16.3247 73.2101 16.0073 73.4154 15.606C73.6301 15.1953 73.7374 14.738 73.7374 14.234C73.7374 13.7113 73.6301 13.254 73.4154 12.862C73.2101 12.4607 72.9208 12.1433 72.5474 11.91C72.1741 11.6673 71.7494 11.546 71.2734 11.546C70.7974 11.546 70.3681 11.6627 69.9854 11.896C69.6121 12.1293 69.3134 12.4513 69.0894 12.862C68.8748 13.2633 68.7674 13.7207 68.7674 14.234C68.7674 14.738 68.8748 15.1953 69.0894 15.606C69.3134 16.0073 69.6121 16.3247 69.9854 16.558C70.3681 16.7913 70.7974 16.908 71.2734 16.908ZM76.5507 18V7.402H77.8527V18H76.5507ZM83.0649 18.168C82.3369 18.168 81.6883 17.9953 81.1189 17.65C80.5496 17.3047 80.1016 16.8333 79.7749 16.236C79.4483 15.6293 79.2849 14.9527 79.2849 14.206C79.2849 13.45 79.4436 12.778 79.7609 12.19C80.0876 11.602 80.5263 11.14 81.0769 10.804C81.6369 10.4587 82.2623 10.286 82.9529 10.286C83.5129 10.286 84.0076 10.3887 84.4369 10.594C84.8756 10.79 85.2443 11.0607 85.5429 11.406C85.8509 11.742 86.0843 12.1293 86.2429 12.568C86.4109 12.9973 86.4949 13.4453 86.4949 13.912C86.4949 14.0147 86.4856 14.1313 86.4669 14.262C86.4576 14.3833 86.4436 14.5 86.4249 14.612H80.2369V13.492H85.6689L85.0529 13.996C85.1369 13.5107 85.0903 13.0767 84.9129 12.694C84.7356 12.3113 84.4743 12.008 84.1289 11.784C83.7836 11.56 83.3916 11.448 82.9529 11.448C82.5143 11.448 82.1129 11.56 81.7489 11.784C81.3849 12.008 81.1003 12.33 80.8949 12.75C80.6989 13.1607 80.6196 13.6507 80.6569 14.22C80.6196 14.7707 80.7036 15.256 80.9089 15.676C81.1236 16.0867 81.4223 16.4087 81.8049 16.642C82.1969 16.866 82.6216 16.978 83.0789 16.978C83.5829 16.978 84.0076 16.8613 84.3529 16.628C84.6983 16.3947 84.9783 16.096 85.1929 15.732L86.2849 16.292C86.1356 16.6373 85.9023 16.9547 85.5849 17.244C85.2769 17.524 84.9083 17.748 84.4789 17.916C84.0589 18.084 83.5876 18.168 83.0649 18.168Z" fill="#90A3BF"/>
</svg>
