<svg width="90" height="24" viewBox="0 0 90 24" fill="none" xmlns="http://www.w3.org/2000/svg">
<path d="M9 2C6.38 2 4.25 4.13 4.25 6.75C4.25 9.32 6.26 11.4 8.88 11.49C8.96 11.48 9.04 11.48 9.1 11.49C9.12 11.49 9.13 11.49 9.15 11.49C9.16 11.49 9.16 11.49 9.17 11.49C11.73 11.4 13.74 9.32 13.75 6.75C13.75 4.13 11.62 2 9 2Z" fill="#90A3BF"/>
<path d="M14.08 14.15C11.29 12.29 6.73996 12.29 3.92996 14.15C2.65996 15 1.95996 16.15 1.95996 17.38C1.95996 18.61 2.65996 19.75 3.91996 20.59C5.31996 21.53 7.15996 22 8.99996 22C10.84 22 12.68 21.53 14.08 20.59C15.34 19.74 16.04 18.6 16.04 17.36C16.03 16.13 15.34 14.99 14.08 14.15Z" fill="#90A3BF"/>
<path d="M19.9901 7.33998C20.1501 9.27998 18.7701 10.98 16.8601 11.21C16.8501 11.21 16.8501 11.21 16.8401 11.21H16.8101C16.7501 11.21 16.6901 11.21 16.6401 11.23C15.6701 11.28 14.7801 10.97 14.1101 10.4C15.1401 9.47998 15.7301 8.09998 15.6101 6.59998C15.5401 5.78998 15.2601 5.04998 14.8401 4.41998C15.2201 4.22998 15.6601 4.10998 16.1101 4.06998C18.0701 3.89998 19.8201 5.35998 19.9901 7.33998Z" fill="#90A3BF"/>
<path d="M21.99 16.59C21.91 17.56 21.29 18.4 20.25 18.97C19.25 19.52 17.99 19.78 16.74 19.75C17.46 19.1 17.88 18.29 17.96 17.43C18.06 16.19 17.47 15 16.29 14.05C15.62 13.52 14.84 13.1 13.99 12.79C16.2 12.15 18.98 12.58 20.69 13.96C21.61 14.7 22.08 15.63 21.99 16.59Z" fill="#90A3BF"/>
<path d="M34.214 18.168C33.542 18.168 32.9447 18.0187 32.422 17.72C31.9087 17.4213 31.5027 17.0153 31.204 16.502C30.9053 15.9793 30.756 15.3867 30.756 14.724C30.756 14.36 30.798 14.0007 30.882 13.646C30.966 13.2913 31.1013 12.932 31.288 12.568C31.4747 12.204 31.7127 11.826 32.002 11.434L34.942 7.57H36.594L32.996 12.246L32.744 12.218C32.884 12.0313 33.038 11.8867 33.206 11.784C33.3833 11.6813 33.57 11.6067 33.766 11.56C33.9713 11.5133 34.186 11.49 34.41 11.49C35.026 11.49 35.5767 11.6347 36.062 11.924C36.5567 12.204 36.944 12.5913 37.224 13.086C37.5133 13.5807 37.658 14.15 37.658 14.794C37.658 15.438 37.5087 16.0167 37.21 16.53C36.9113 17.034 36.5007 17.4353 35.978 17.734C35.4647 18.0233 34.8767 18.168 34.214 18.168ZM34.214 16.936C34.606 16.936 34.956 16.8473 35.264 16.67C35.572 16.4833 35.8147 16.2267 35.992 15.9C36.1787 15.5733 36.272 15.2093 36.272 14.808C36.272 14.388 36.1833 14.024 36.006 13.716C35.8287 13.3987 35.586 13.1467 35.278 12.96C34.97 12.7733 34.6153 12.68 34.214 12.68C33.822 12.68 33.4673 12.7733 33.15 12.96C32.8327 13.1467 32.5853 13.3987 32.408 13.716C32.2307 14.024 32.142 14.388 32.142 14.808C32.142 15.2093 32.2307 15.5733 32.408 15.9C32.5947 16.2267 32.842 16.4833 33.15 16.67C33.4673 16.8473 33.822 16.936 34.214 16.936ZM41.4028 18V7.57H45.0848C45.7754 7.57 46.3821 7.70067 46.9048 7.962C47.4274 8.22333 47.8334 8.59667 48.1228 9.082C48.4214 9.56733 48.5708 10.1367 48.5708 10.79C48.5708 11.4433 48.4214 12.0127 48.1228 12.498C47.8334 12.974 47.4274 13.3473 46.9048 13.618C46.3914 13.8793 45.7848 14.01 45.0848 14.01H42.7748V18H41.4028ZM42.7748 12.75H45.1268C45.5468 12.75 45.9108 12.6707 46.2188 12.512C46.5268 12.3533 46.7648 12.1247 46.9328 11.826C47.1008 11.5273 47.1848 11.182 47.1848 10.79C47.1848 10.3887 47.1008 10.0433 46.9328 9.754C46.7648 9.45533 46.5268 9.22667 46.2188 9.068C45.9108 8.90933 45.5468 8.83 45.1268 8.83H42.7748V12.75ZM53.1908 18.168C52.4628 18.168 51.8141 17.9953 51.2448 17.65C50.6754 17.3047 50.2274 16.8333 49.9008 16.236C49.5741 15.6293 49.4108 14.9527 49.4108 14.206C49.4108 13.45 49.5694 12.778 49.8868 12.19C50.2134 11.602 50.6521 11.14 51.2028 10.804C51.7628 10.4587 52.3881 10.286 53.0788 10.286C53.6388 10.286 54.1334 10.3887 54.5628 10.594C55.0014 10.79 55.3701 11.0607 55.6688 11.406C55.9768 11.742 56.2101 12.1293 56.3688 12.568C56.5368 12.9973 56.6208 13.4453 56.6208 13.912C56.6208 14.0147 56.6114 14.1313 56.5928 14.262C56.5834 14.3833 56.5694 14.5 56.5508 14.612H50.3628V13.492H55.7948L55.1788 13.996C55.2628 13.5107 55.2161 13.0767 55.0388 12.694C54.8614 12.3113 54.6001 12.008 54.2548 11.784C53.9094 11.56 53.5174 11.448 53.0788 11.448C52.6401 11.448 52.2388 11.56 51.8748 11.784C51.5108 12.008 51.2261 12.33 51.0208 12.75C50.8248 13.1607 50.7454 13.6507 50.7828 14.22C50.7454 14.7707 50.8294 15.256 51.0348 15.676C51.2494 16.0867 51.5481 16.4087 51.9308 16.642C52.3228 16.866 52.7474 16.978 53.2048 16.978C53.7088 16.978 54.1334 16.8613 54.4788 16.628C54.8241 16.3947 55.1041 16.096 55.3188 15.732L56.4108 16.292C56.2614 16.6373 56.0281 16.9547 55.7108 17.244C55.4028 17.524 55.0341 17.748 54.6048 17.916C54.1848 18.084 53.7134 18.168 53.1908 18.168ZM61.6224 18.168C60.8944 18.168 60.2364 18 59.6484 17.664C59.0604 17.3187 58.5937 16.8473 58.2484 16.25C57.9031 15.6527 57.7304 14.976 57.7304 14.22C57.7304 13.464 57.8984 12.792 58.2344 12.204C58.5797 11.616 59.0464 11.1493 59.6344 10.804C60.2224 10.4587 60.8851 10.286 61.6224 10.286C62.3504 10.286 63.0084 10.4587 63.5964 10.804C64.1844 11.14 64.6464 11.602 64.9824 12.19C65.3277 12.778 65.5004 13.4547 65.5004 14.22C65.5004 14.9853 65.3231 15.6667 64.9684 16.264C64.6137 16.852 64.1424 17.3187 63.5544 17.664C62.9757 18 62.3317 18.168 61.6224 18.168ZM61.6224 16.908C62.0891 16.908 62.5091 16.7913 62.8824 16.558C63.2651 16.3247 63.5637 16.0027 63.7784 15.592C64.0024 15.1813 64.1144 14.724 64.1144 14.22C64.1144 13.7067 64.0024 13.254 63.7784 12.862C63.5637 12.4607 63.2651 12.1433 62.8824 11.91C62.5091 11.6673 62.0891 11.546 61.6224 11.546C61.1464 11.546 60.7171 11.6673 60.3344 11.91C59.9611 12.1433 59.6624 12.4607 59.4384 12.862C59.2144 13.254 59.1024 13.7067 59.1024 14.22C59.1024 14.724 59.2144 15.1813 59.4384 15.592C59.6624 16.0027 59.9611 16.3247 60.3344 16.558C60.7171 16.7913 61.1464 16.908 61.6224 16.908ZM66.9185 20.8V10.454H68.1925V12.078L68.0245 11.756C68.3045 11.308 68.6872 10.9533 69.1725 10.692C69.6579 10.4213 70.2132 10.286 70.8385 10.286C71.5479 10.286 72.1825 10.4587 72.7425 10.804C73.3119 11.1493 73.7599 11.6207 74.0865 12.218C74.4132 12.806 74.5765 13.478 74.5765 14.234C74.5765 14.9713 74.4132 15.6387 74.0865 16.236C73.7599 16.8333 73.3119 17.3047 72.7425 17.65C72.1825 17.9953 71.5432 18.168 70.8245 18.168C70.2179 18.168 69.6625 18.0327 69.1585 17.762C68.6639 17.4913 68.2812 17.1087 68.0105 16.614L68.2205 16.39V20.8H66.9185ZM70.7265 16.908C71.2025 16.908 71.6272 16.7913 72.0005 16.558C72.3739 16.3247 72.6632 16.0073 72.8685 15.606C73.0832 15.1953 73.1905 14.738 73.1905 14.234C73.1905 13.7113 73.0832 13.254 72.8685 12.862C72.6632 12.4607 72.3739 12.1433 72.0005 11.91C71.6272 11.6673 71.2025 11.546 70.7265 11.546C70.2505 11.546 69.8212 11.6627 69.4385 11.896C69.0652 12.1293 68.7665 12.4513 68.5425 12.862C68.3279 13.2633 68.2205 13.7207 68.2205 14.234C68.2205 14.738 68.3279 15.1953 68.5425 15.606C68.7665 16.0073 69.0652 16.3247 69.4385 16.558C69.8212 16.7913 70.2505 16.908 70.7265 16.908ZM76.0038 18V7.402H77.3058V18H76.0038ZM82.518 18.168C81.79 18.168 81.1414 17.9953 80.572 17.65C80.0027 17.3047 79.5547 16.8333 79.228 16.236C78.9014 15.6293 78.738 14.9527 78.738 14.206C78.738 13.45 78.8967 12.778 79.214 12.19C79.5407 11.602 79.9794 11.14 80.53 10.804C81.09 10.4587 81.7154 10.286 82.406 10.286C82.966 10.286 83.4607 10.3887 83.89 10.594C84.3287 10.79 84.6974 11.0607 84.996 11.406C85.304 11.742 85.5374 12.1293 85.696 12.568C85.864 12.9973 85.948 13.4453 85.948 13.912C85.948 14.0147 85.9387 14.1313 85.92 14.262C85.9107 14.3833 85.8967 14.5 85.878 14.612H79.69V13.492H85.122L84.506 13.996C84.59 13.5107 84.5434 13.0767 84.366 12.694C84.1887 12.3113 83.9274 12.008 83.582 11.784C83.2367 11.56 82.8447 11.448 82.406 11.448C81.9674 11.448 81.566 11.56 81.202 11.784C80.838 12.008 80.5534 12.33 80.348 12.75C80.152 13.1607 80.0727 13.6507 80.11 14.22C80.0727 14.7707 80.1567 15.256 80.362 15.676C80.5767 16.0867 80.8754 16.4087 81.258 16.642C81.65 16.866 82.0747 16.978 82.532 16.978C83.036 16.978 83.4607 16.8613 83.806 16.628C84.1514 16.3947 84.4314 16.096 84.646 15.732L85.738 16.292C85.5887 16.6373 85.3554 16.9547 85.038 17.244C84.73 17.524 84.3614 17.748 83.932 17.916C83.512 18.084 83.0407 18.168 82.518 18.168Z" fill="#90A3BF"/>
</svg>
