<svg width="58" height="24" viewBox="0 0 58 24" fill="none" xmlns="http://www.w3.org/2000/svg">
<path d="M22.34 9.33L20.34 8.33C19.97 8.15 19.51 8.29 19.33 8.66C19.14 9.04 19.29 9.49 19.66 9.67L21.25 10.46V15.25L17.5 15.26V5C17.5 3 16.16 2 14.5 2H6.5C4.84 2 3.5 3 3.5 5V21.25H2C1.59 21.25 1.25 21.59 1.25 22C1.25 22.41 1.59 22.75 2 22.75H19C19.41 22.75 19.75 22.41 19.75 22C19.75 21.59 19.41 21.25 19 21.25H17.5V16.76L22 16.75C22.42 16.75 22.75 16.41 22.75 16V10C22.75 9.72 22.59 9.46 22.34 9.33ZM6 6.89C6 5.5 6.85 5 7.89 5H13.12C14.15 5 15 5.5 15 6.89V8.12C15 9.5 14.15 10 13.11 10H7.89C6.85 10 6 9.5 6 8.11V6.89ZM6.5 12.25H9.5C9.91 12.25 10.25 12.59 10.25 13C10.25 13.41 9.91 13.75 9.5 13.75H6.5C6.09 13.75 5.75 13.41 5.75 13C5.75 12.59 6.09 12.25 6.5 12.25Z" fill="#90A3BF"/>
<path d="M31.078 18L35.656 8.76H30.546V7.57H37.098V8.76L32.562 18H31.078ZM42.4719 18.168C41.6413 18.168 40.9133 17.944 40.2879 17.496C39.6719 17.0387 39.1913 16.4087 38.8459 15.606C38.5006 14.794 38.3279 13.8513 38.3279 12.778C38.3279 11.7047 38.5006 10.7667 38.8459 9.964C39.1913 9.152 39.6719 8.522 40.2879 8.074C40.9039 7.626 41.6273 7.402 42.4579 7.402C43.2886 7.402 44.0119 7.626 44.6279 8.074C45.2439 8.522 45.7246 9.152 46.0699 9.964C46.4246 10.7667 46.6019 11.7047 46.6019 12.778C46.6019 13.8513 46.4293 14.794 46.0839 15.606C45.7386 16.418 45.2533 17.048 44.6279 17.496C44.0119 17.944 43.2933 18.168 42.4719 18.168ZM42.4719 16.894C43.0319 16.894 43.5173 16.726 43.9279 16.39C44.3386 16.0447 44.6559 15.564 44.8799 14.948C45.1133 14.332 45.2299 13.6087 45.2299 12.778C45.2299 11.9473 45.1133 11.224 44.8799 10.608C44.6559 9.992 44.3339 9.516 43.9139 9.18C43.5033 8.844 43.0179 8.676 42.4579 8.676C41.8979 8.676 41.4126 8.844 41.0019 9.18C40.5913 9.516 40.2693 9.992 40.0359 10.608C39.8119 11.224 39.6999 11.9473 39.6999 12.778C39.6999 13.5993 39.8119 14.318 40.0359 14.934C40.2693 15.55 40.5913 16.0307 41.0019 16.376C41.4219 16.7213 41.9119 16.894 42.4719 16.894ZM48.4028 18V7.57H49.7748V16.74H54.3528V18H48.4028Z" fill="#90A3BF"/>
</svg>
