<svg width="58" height="24" viewBox="0 0 58 24" fill="none" xmlns="http://www.w3.org/2000/svg">
<path d="M22.34 9.33L20.34 8.33C19.97 8.15 19.51 8.29 19.33 8.66C19.14 9.04 19.29 9.49 19.66 9.67L21.25 10.46V15.25L17.5 15.26V5C17.5 3 16.16 2 14.5 2H6.5C4.84 2 3.5 3 3.5 5V21.25H2C1.59 21.25 1.25 21.59 1.25 22C1.25 22.41 1.59 22.75 2 22.75H19C19.41 22.75 19.75 22.41 19.75 22C19.75 21.59 19.41 21.25 19 21.25H17.5V16.76L22 16.75C22.42 16.75 22.75 16.41 22.75 16V10C22.75 9.72 22.59 9.46 22.34 9.33ZM6 6.89C6 5.5 6.85 5 7.89 5H13.12C14.15 5 15 5.5 15 6.89V8.12C15 9.5 14.15 10 13.11 10H7.89C6.85 10 6 9.5 6 8.11V6.89ZM6.5 12.25H9.5C9.91 12.25 10.25 12.59 10.25 13C10.25 13.41 9.91 13.75 9.5 13.75H6.5C6.09 13.75 5.75 13.41 5.75 13C5.75 12.59 6.09 12.25 6.5 12.25Z" fill="#90A3BF"/>
<path d="M31.078 18L35.656 8.76H30.546V7.57H37.098V8.76L32.562 18H31.078ZM42.7519 18.168C41.9213 18.168 41.1933 17.944 40.5679 17.496C39.9519 17.0387 39.4713 16.4087 39.1259 15.606C38.7806 14.794 38.6079 13.8513 38.6079 12.778C38.6079 11.7047 38.7806 10.7667 39.1259 9.964C39.4713 9.152 39.9519 8.522 40.5679 8.074C41.1839 7.626 41.9073 7.402 42.7379 7.402C43.5686 7.402 44.2919 7.626 44.9079 8.074C45.5239 8.522 46.0046 9.152 46.3499 9.964C46.7046 10.7667 46.8819 11.7047 46.8819 12.778C46.8819 13.8513 46.7093 14.794 46.3639 15.606C46.0186 16.418 45.5333 17.048 44.9079 17.496C44.2919 17.944 43.5733 18.168 42.7519 18.168ZM42.7519 16.894C43.3119 16.894 43.7973 16.726 44.2079 16.39C44.6186 16.0447 44.9359 15.564 45.1599 14.948C45.3933 14.332 45.5099 13.6087 45.5099 12.778C45.5099 11.9473 45.3933 11.224 45.1599 10.608C44.9359 9.992 44.6139 9.516 44.1939 9.18C43.7833 8.844 43.2979 8.676 42.7379 8.676C42.1779 8.676 41.6926 8.844 41.2819 9.18C40.8713 9.516 40.5493 9.992 40.3159 10.608C40.0919 11.224 39.9799 11.9473 39.9799 12.778C39.9799 13.5993 40.0919 14.318 40.3159 14.934C40.5493 15.55 40.8713 16.0307 41.2819 16.376C41.7019 16.7213 42.1919 16.894 42.7519 16.894ZM48.9628 18V7.57H50.3348V16.74H54.9128V18H48.9628Z" fill="#90A3BF"/>
</svg>
