<svg width="76" height="24" viewBox="0 0 76 24" fill="none" xmlns="http://www.w3.org/2000/svg">
<path d="M12 2C6.48 2 2 6.48 2 12C2 17.52 6.48 22 12 22C17.52 22 22 17.52 22 12C22 6.48 17.53 2 12 2Z" fill="#90A3BF"/>
<rect x="4" y="4" width="16" height="16" rx="8" fill="white"/>
<path d="M12 6C8.688 6 6 8.688 6 12C6 15.312 8.688 18 12 18C15.312 18 18 15.312 18 12C18 8.688 15.318 6 12 6Z" fill="#90A3BF"/>
<rect x="8" y="8" width="8" height="8" rx="4" fill="white"/>
<rect x="11" y="17" width="2" height="4" fill="#90A3BF"/>
<rect x="17" y="11" width="4" height="2" fill="#90A3BF"/>
<rect x="3" y="11" width="4" height="2" fill="#90A3BF"/>
<path d="M29.162 18V7.57H30.422L34.328 13.128H33.684L37.562 7.57H38.822V18H37.436V9.306L37.926 9.46L34.048 14.92H33.936L30.1 9.46L30.534 9.306V18H29.162ZM42.9166 18.168C42.4219 18.168 41.9832 18.0793 41.6006 17.902C41.2272 17.7153 40.9332 17.4633 40.7186 17.146C40.5039 16.8193 40.3966 16.446 40.3966 16.026C40.3966 15.6247 40.4806 15.2653 40.6486 14.948C40.8259 14.6213 41.0966 14.346 41.4606 14.122C41.8339 13.898 42.3006 13.7393 42.8606 13.646L45.6606 13.184V14.276L43.1546 14.696C42.6692 14.78 42.3146 14.934 42.0906 15.158C41.8759 15.382 41.7686 15.6573 41.7686 15.984C41.7686 16.292 41.8899 16.5487 42.1326 16.754C42.3846 16.9593 42.6972 17.062 43.0706 17.062C43.5466 17.062 43.9572 16.964 44.3026 16.768C44.6572 16.5627 44.9326 16.2873 45.1286 15.942C45.3339 15.5967 45.4366 15.214 45.4366 14.794V12.876C45.4366 12.4653 45.2826 12.134 44.9746 11.882C44.6759 11.6207 44.2792 11.49 43.7846 11.49C43.3552 11.49 42.9726 11.602 42.6366 11.826C42.3099 12.0407 42.0672 12.33 41.9086 12.694L40.7746 12.106C40.9146 11.7607 41.1386 11.4527 41.4466 11.182C41.7546 10.902 42.1139 10.6827 42.5246 10.524C42.9352 10.3653 43.3646 10.286 43.8126 10.286C44.3912 10.286 44.8999 10.398 45.3386 10.622C45.7772 10.8367 46.1179 11.14 46.3606 11.532C46.6126 11.9147 46.7386 12.3627 46.7386 12.876V18H45.4646V16.572L45.7026 16.656C45.5439 16.9547 45.3292 17.216 45.0586 17.44C44.7879 17.664 44.4706 17.8413 44.1066 17.972C43.7426 18.1027 43.3459 18.168 42.9166 18.168ZM48.4773 18V10.454H49.7513V11.924L49.5413 11.798C49.728 11.322 50.0266 10.9533 50.4373 10.692C50.8573 10.4213 51.3473 10.286 51.9073 10.286C52.4486 10.286 52.9293 10.4073 53.3493 10.65C53.7786 10.8927 54.1146 11.2287 54.3573 11.658C54.6093 12.0873 54.7353 12.5727 54.7353 13.114V18H53.4193V13.534C53.4193 13.114 53.3446 12.7593 53.1953 12.47C53.046 12.1807 52.8313 11.9567 52.5513 11.798C52.2806 11.63 51.968 11.546 51.6133 11.546C51.2586 11.546 50.9413 11.63 50.6613 11.798C50.3906 11.9567 50.176 12.1853 50.0173 12.484C49.8586 12.7733 49.7793 13.1233 49.7793 13.534V18H48.4773ZM58.9924 18.168C58.4511 18.168 57.9611 18.042 57.5224 17.79C57.0931 17.538 56.7571 17.188 56.5144 16.74C56.2811 16.2827 56.1644 15.76 56.1644 15.172V10.454H57.4664V15.032C57.4664 15.4053 57.5411 15.732 57.6904 16.012C57.8491 16.292 58.0637 16.5113 58.3344 16.67C58.6144 16.8287 58.9317 16.908 59.2864 16.908C59.6411 16.908 59.9537 16.8287 60.2244 16.67C60.5044 16.5113 60.7191 16.2827 60.8684 15.984C61.0271 15.6853 61.1064 15.3307 61.1064 14.92V10.454H62.4224V18H61.1484V16.53L61.3584 16.656C61.1811 17.132 60.8777 17.5053 60.4484 17.776C60.0284 18.0373 59.5431 18.168 58.9924 18.168ZM66.3715 18.168C65.8768 18.168 65.4382 18.0793 65.0555 17.902C64.6822 17.7153 64.3882 17.4633 64.1735 17.146C63.9588 16.8193 63.8515 16.446 63.8515 16.026C63.8515 15.6247 63.9355 15.2653 64.1035 14.948C64.2808 14.6213 64.5515 14.346 64.9155 14.122C65.2888 13.898 65.7555 13.7393 66.3155 13.646L69.1155 13.184V14.276L66.6095 14.696C66.1242 14.78 65.7695 14.934 65.5455 15.158C65.3308 15.382 65.2235 15.6573 65.2235 15.984C65.2235 16.292 65.3448 16.5487 65.5875 16.754C65.8395 16.9593 66.1522 17.062 66.5255 17.062C67.0015 17.062 67.4122 16.964 67.7575 16.768C68.1122 16.5627 68.3875 16.2873 68.5835 15.942C68.7888 15.5967 68.8915 15.214 68.8915 14.794V12.876C68.8915 12.4653 68.7375 12.134 68.4295 11.882C68.1308 11.6207 67.7342 11.49 67.2395 11.49C66.8102 11.49 66.4275 11.602 66.0915 11.826C65.7648 12.0407 65.5222 12.33 65.3635 12.694L64.2295 12.106C64.3695 11.7607 64.5935 11.4527 64.9015 11.182C65.2095 10.902 65.5688 10.6827 65.9795 10.524C66.3902 10.3653 66.8195 10.286 67.2675 10.286C67.8462 10.286 68.3548 10.398 68.7935 10.622C69.2322 10.8367 69.5728 11.14 69.8155 11.532C70.0675 11.9147 70.1935 12.3627 70.1935 12.876V18H68.9195V16.572L69.1575 16.656C68.9988 16.9547 68.7842 17.216 68.5135 17.44C68.2428 17.664 67.9255 17.8413 67.5615 17.972C67.1975 18.1027 66.8008 18.168 66.3715 18.168ZM71.9322 18V7.402H73.2342V18H71.9322Z" fill="#90A3BF"/>
</svg>
